<?xml version="1.0" standalone="no"?>
<!DOCTYPE svg PUBLIC "-//W3C//DTD SVG 20010904//EN"
 "http://www.w3.org/TR/2001/REC-SVG-20010904/DTD/svg10.dtd">
<svg version="1.0" xmlns="http://www.w3.org/2000/svg"
 width="300.000000pt" height="317.000000pt" viewBox="0 0 300.000000 317.000000"
 preserveAspectRatio="xMidYMid meet">
<metadata>
Created by potrace 1.10, written by Peter Selinger 2001-2011
</metadata>
<g transform="translate(0.000000,317.000000) scale(0.100000,-0.100000)"
fill="#000000" stroke="none">
<path d="M1873 3093 c9 -2 17 -11 17 -19 0 -8 4 -14 10 -14 5 0 7 -7 3 -16 -5
-13 -2 -15 18 -9 13 4 28 11 34 16 5 5 25 9 44 9 46 0 36 7 -17 13 -31 3 -42
0 -42 -9 0 -20 -19 -17 -27 4 -8 21 -23 32 -43 31 -11 -1 -10 -3 3 -6z"/>
<path d="M78 2963 c-29 -7 -21 -26 9 -20 30 6 92 -22 93 -40 0 -7 4 -13 10
-13 6 0 6 9 0 25 -6 16 -6 25 0 25 6 0 10 3 10 8 0 4 -19 6 -41 4 -29 -3 -40
-1 -35 7 7 11 -13 13 -46 4z"/>
<path d="M2304 2925 c11 -9 15 -19 10 -27 -6 -11 -5 -11 8 0 12 10 18 9 28 -3
7 -8 22 -15 33 -15 20 0 20 0 -2 21 -13 12 -39 25 -59 30 -33 7 -35 6 -18 -6z"/>
<path d="M34 2913 c2 -13 14 -19 40 -21 20 -2 34 -7 31 -13 -4 -5 1 -9 9 -9 9
0 16 -4 16 -10 0 -5 -6 -10 -14 -10 -8 0 -18 5 -21 10 -3 6 -16 9 -28 9 -19
-1 -20 -2 -3 -6 11 -3 31 -16 45 -29 29 -27 74 -33 65 -9 -4 10 -13 13 -25 10
-11 -4 -19 -2 -19 4 0 6 4 11 10 11 5 0 6 8 3 17 -5 12 -2 15 10 10 25 -9 21
10 -4 24 -15 8 -19 8 -15 0 10 -16 -10 -13 -23 3 -7 8 -23 13 -37 10 -13 -2
-24 0 -24 6 0 5 -4 10 -9 10 -5 0 -8 -8 -7 -17z"/>
<path d="M486 2894 c-5 -12 -14 -15 -36 -10 -17 3 -30 1 -30 -4 0 -6 -9 -10
-20 -10 -11 0 -20 -6 -20 -13 0 -15 32 -15 83 2 25 9 37 18 37 32 0 23 -6 24
-14 3z"/>
<path d="M2213 2878 c2 -7 10 -12 16 -10 6 1 11 -3 11 -8 0 -6 12 -10 28 -9
15 0 62 -2 105 -5 42 -2 77 -1 77 4 0 5 -25 8 -56 6 -37 -2 -57 1 -60 9 -4 8
-15 10 -37 5 -21 -4 -42 -2 -61 7 -23 12 -27 12 -23 1z"/>
<path d="M2483 2873 c-4 -10 -11 -21 -17 -25 -6 -4 -7 -10 -3 -14 10 -10 38
16 30 29 -4 7 0 8 12 3 15 -5 16 -4 5 9 -16 19 -19 19 -27 -2z"/>
<path d="M330 2872 c0 -5 -34 -7 -75 -4 -62 3 -75 2 -75 -11 0 -8 6 -17 13
-20 19 -6 47 4 41 15 -4 7 11 8 43 3 39 -5 52 -3 62 9 9 11 10 16 2 16 -6 0
-11 -4 -11 -8z"/>
<path d="M505 2840 c-4 -6 -11 -8 -16 -5 -5 4 -9 1 -9 -5 0 -7 9 -14 19 -17
11 -3 22 -11 25 -19 3 -8 10 -14 16 -14 8 0 8 6 0 20 -6 11 -18 20 -27 20 -13
0 -13 3 -3 15 7 8 10 15 7 15 -3 0 -9 -5 -12 -10z"/>
<path d="M325 2810 c3 -5 1 -10 -6 -10 -10 0 -10 -3 -1 -12 10 -10 17 -10 32
0 24 15 57 16 65 2 3 -5 -3 -10 -15 -10 -13 0 -20 -5 -17 -12 2 -7 11 -11 18
-9 47 13 59 13 59 -2 0 -20 -21 -36 -45 -35 -11 0 -28 -3 -37 -7 -11 -4 -18
-3 -18 4 0 6 6 11 13 11 6 1 -4 8 -23 16 -38 17 -120 25 -120 13 0 -14 22 -22
61 -22 30 0 40 -4 45 -21 4 -11 12 -24 18 -28 6 -5 2 -8 -10 -8 -30 0 -51 26
-27 34 10 3 5 3 -12 0 -27 -6 -48 -6 -123 -4 -14 0 -22 5 -20 12 4 12 -61 42
-70 34 -2 -2 14 -17 35 -32 21 -16 40 -33 41 -37 2 -4 11 -2 19 4 11 10 16 10
22 0 9 -15 91 -22 91 -8 0 4 7 1 16 -7 20 -21 30 -20 46 2 7 10 31 22 53 25
22 4 46 14 53 24 8 12 15 14 20 7 13 -19 39 -23 66 -9 15 8 33 12 41 8 8 -3
15 -1 15 5 0 5 -12 13 -27 18 -31 8 -31 8 -55 -1 -13 -5 -18 -2 -18 9 0 8 -6
13 -12 11 -7 -3 -35 6 -62 20 -49 25 -123 35 -111 15z"/>
<path d="M140 2772 c0 -15 61 -35 72 -24 8 8 2 13 -18 17 -16 4 -35 8 -41 11
-7 2 -13 0 -13 -4z"/>
<path d="M446 2691 c-19 -7 -19 -8 -1 -15 11 -4 21 -2 26 5 4 6 12 8 18 5 6
-4 11 -2 11 3 0 12 -26 13 -54 2z"/>
<path d="M16 2668 c3 -10 1 -18 -5 -18 -6 0 -11 -5 -11 -11 0 -6 6 -9 14 -6 7
3 26 -1 41 -9 34 -17 37 -17 60 0 17 12 15 14 -23 14 -32 1 -48 7 -62 24 -14
16 -18 18 -14 6z"/>
<path d="M375 2659 c-4 -12 -2 -26 4 -32 6 -6 11 -19 11 -29 0 -15 -4 -17 -18
-9 -13 7 -23 6 -31 -2 -10 -9 -17 -6 -35 16 -12 15 -25 27 -29 27 -9 0 23 -52
37 -62 6 -4 15 -4 21 0 17 10 88 11 107 1 12 -6 18 -6 18 1 0 5 -7 10 -15 10
-18 0 -56 40 -49 52 9 14 24 9 32 -12 7 -20 7 -20 20 0 10 17 10 20 -4 20 -8
0 -13 4 -9 9 11 19 -17 23 -36 5 -20 -18 -27 -6 -7 14 9 9 9 12 1 12 -7 0 -15
-9 -18 -21z"/>
<path d="M0 2609 c0 -7 35 -19 58 -19 7 0 11 4 8 9 -7 11 -66 20 -66 10z"/>
<path d="M402 2548 c-5 -5 -26 -13 -47 -18 -21 -5 -34 -5 -29 0 5 4 18 10 29
13 18 4 17 5 -3 6 -13 0 -36 -6 -52 -14 -22 -11 -30 -12 -33 -2 -3 6 -4 2 -4
-10 1 -17 7 -23 24 -23 17 0 21 4 16 18 -6 15 -5 15 10 3 9 -7 24 -10 33 -7
10 4 22 -1 30 -11 12 -16 13 -16 14 -2 0 25 24 41 38 27 9 -9 12 -8 12 4 0 20
-24 30 -38 16z"/>
<path d="M178 2543 c-10 -2 -18 -9 -18 -14 0 -14 27 -11 34 4 5 10 7 10 12 0
3 -7 12 -13 19 -13 7 0 16 -6 18 -12 4 -8 6 -7 6 3 1 9 -7 19 -16 23 -10 3
-22 8 -28 10 -5 2 -18 2 -27 -1z"/>
<path d="M175 2477 c21 -51 51 -76 90 -74 38 2 44 16 19 41 -17 17 -59 22 -49
6 3 -5 -3 -10 -14 -10 -12 0 -21 4 -21 10 0 14 31 28 51 23 11 -3 19 0 19 6 0
6 -10 11 -23 11 -13 0 -29 6 -36 13 -10 8 -12 8 -7 0 3 -6 2 -14 -4 -18 -5 -3
-10 -2 -10 3 0 6 -6 12 -14 15 -12 5 -13 1 -1 -26z"/>
<path d="M390 2465 c10 -12 10 -15 -4 -15 -9 0 -16 4 -16 8 0 13 -58 1 -64
-13 -6 -16 54 -29 68 -15 5 5 18 10 29 10 10 0 15 5 12 10 -3 6 -1 10 4 10 6
0 11 5 11 10 0 6 -12 10 -26 10 -22 0 -25 -2 -14 -15z"/>
<path d="M433 2435 c-8 -9 -9 -16 -3 -20 6 -3 10 -1 10 4 0 7 17 10 40 8 22
-2 45 0 52 5 8 5 2 8 -17 8 -16 0 -39 2 -50 5 -11 3 -26 -2 -32 -10z"/>
<path d="M911 2443 c0 -6 -10 -15 -21 -18 -11 -3 -20 -14 -20 -23 0 -11 3 -13
8 -6 5 7 73 11 205 12 110 0 201 3 205 6 3 3 -2 6 -11 6 -9 0 -17 5 -17 10 0
7 -42 10 -117 8 -65 -1 -134 1 -153 5 -25 5 -29 4 -15 -2 11 -5 15 -10 8 -10
-6 -1 -19 -4 -29 -8 -13 -5 -15 -3 -9 8 7 12 6 12 -7 1 -14 -11 -17 -10 -21 5
-3 10 -5 13 -6 6z"/>
<path d="M1288 2432 c12 -2 20 -8 17 -13 -4 -5 71 -9 187 -9 168 0 190 2 172
14 -15 11 -61 14 -209 13 -105 0 -180 -2 -167 -5z"/>
<path d="M1690 2420 c8 -15 21 -20 48 -20 56 0 147 -26 237 -68 58 -27 100
-57 158 -112 144 -136 217 -274 251 -472 4 -21 11 -38 17 -38 14 0 22 28 13
48 -4 9 -8 24 -10 32 -1 8 -12 47 -25 85 -13 39 -24 72 -24 75 -3 11 -26 67
-37 87 -6 12 -15 20 -20 17 -4 -3 -9 2 -9 10 -1 9 -2 20 -3 26 -3 21 -162 184
-193 197 -19 7 -32 17 -29 22 7 10 -167 91 -197 91 -13 0 -27 4 -32 9 -6 5
-38 11 -72 13 -33 2 -59 6 -56 11 2 4 -3 7 -12 7 -13 0 -14 -4 -5 -20z"/>
<path d="M311 2396 c-11 -5 -21 -13 -21 -18 0 -5 -9 -6 -20 -3 -14 4 -20 2
-20 -8 0 -22 -47 -49 -71 -42 -19 6 -20 4 -14 -27 4 -18 8 -34 9 -35 5 -6 46
11 46 18 0 13 -14 11 -28 -3 -8 -8 -12 -8 -12 -1 0 12 23 24 57 30 18 3 20 0
16 -19 -10 -48 -12 -49 -33 -38 -16 9 -18 8 -14 -5 6 -16 -8 -20 -59 -16 -15
1 -27 -3 -27 -8 0 -6 -9 -11 -20 -11 -14 0 -18 5 -14 18 5 14 4 15 -5 2 -18
-25 -12 -32 24 -28 19 2 37 -1 39 -7 3 -6 5 -5 5 3 1 6 12 12 25 12 14 0 31 7
39 15 8 8 17 12 20 9 3 -4 15 0 26 8 12 8 18 17 15 20 -2 3 9 8 26 10 16 3 30
1 30 -4 0 -4 6 -8 13 -8 20 1 -42 50 -63 50 -24 0 -33 15 -25 41 6 19 8 20 26
3 10 -9 19 -23 19 -31 0 -15 26 -18 35 -3 3 6 -1 10 -9 10 -9 0 -16 3 -17 8 0
4 -2 15 -4 24 -2 10 2 15 10 12 7 -3 28 4 46 16 l34 20 -31 -2 c-17 -1 -41 -6
-53 -12z"/>
<path d="M453 2397 c-2 -4 -13 -5 -23 -2 -10 3 -22 0 -27 -8 -4 -7 -23 -19
-42 -27 -28 -11 -31 -15 -15 -20 29 -11 75 11 68 32 -3 10 -1 18 5 18 6 0 11
-4 11 -8 0 -5 12 -14 26 -20 20 -10 28 -9 40 2 11 11 11 16 1 20 -6 3 0 4 16
1 19 -4 27 -1 27 9 0 10 -11 14 -41 13 -22 -1 -43 -6 -46 -10z"/>
<path d="M859 2371 c8 -5 9 -11 3 -15 -5 -3 -8 -27 -5 -53 4 -57 5 -102 3
-206 -1 -43 1 -81 4 -84 3 -3 0 -15 -5 -26 -8 -15 -8 -22 2 -28 9 -6 10 -12 4
-16 -14 -11 -15 -106 -1 -116 7 -6 8 -10 1 -13 -14 -6 -10 -201 4 -218 7 -9 7
-16 0 -23 -8 -8 -11 -105 -10 -300 1 -158 1 -309 1 -334 0 -25 4 -58 9 -72
l11 -27 134 0 134 0 11 33 c8 22 10 225 9 635 l-3 603 32 -4 c18 -3 34 0 38 7
3 8 7 7 11 -1 3 -8 15 -11 29 -7 12 3 39 1 60 -5 29 -8 34 -7 26 3 -7 8 -7 16
-1 22 7 7 -28 10 -105 10 l-115 0 0 -638 0 -638 -127 0 -128 0 0 738 c0 405
-2 747 -4 760 -2 12 -10 22 -20 22 -13 0 -13 -2 -2 -9z"/>
<path d="M516 2345 c16 -12 17 -14 2 -15 -9 0 -29 -11 -45 -24 -15 -12 -35
-26 -43 -29 -9 -3 -4 -6 12 -6 38 -1 58 8 51 26 -5 13 -3 13 15 2 12 -7 25
-10 29 -6 4 5 1 12 -7 17 -12 8 -12 10 4 10 12 0 16 5 12 16 -3 9 -6 18 -6 20
0 2 -10 4 -22 4 -21 0 -21 0 -2 -15z"/>
<path d="M84 2299 c-3 -6 -18 -9 -32 -6 -25 5 -25 4 -8 -8 17 -13 16 -15 -14
-33 -17 -11 -27 -22 -22 -26 5 -3 15 1 22 9 14 17 35 21 25 5 -3 -5 -1 -10 5
-10 7 0 10 7 7 15 -5 11 0 13 22 9 17 -4 32 -1 36 5 5 8 -1 10 -19 5 -27 -6
-32 1 -17 25 6 9 11 10 15 2 4 -6 15 -11 24 -11 13 0 13 2 -4 15 -23 17 -31
18 -40 4z"/>
<path d="M587 2282 c-9 -2 -15 -8 -12 -13 8 -12 65 -12 65 0 0 11 -29 18 -53
13z"/>
<path d="M295 2243 c-11 -3 -24 -9 -29 -14 -6 -5 -18 -9 -27 -9 -9 0 -19 -6
-22 -14 -4 -9 -15 -12 -33 -8 -19 3 -25 1 -20 -7 4 -6 1 -12 -8 -12 -16 -1
-28 -4 -43 -9 -5 -1 -12 -2 -16 -1 -5 1 -6 -3 -2 -9 3 -5 1 -10 -5 -10 -6 0
-8 -5 -4 -11 5 -8 2 -9 -12 -1 -14 8 -25 6 -46 -10 -28 -19 -37 -38 -18 -38 5
0 42 15 82 33 40 19 85 39 101 45 15 6 27 16 27 21 0 11 42 11 50 -1 7 -10 51
2 45 12 -3 4 2 13 10 20 30 25 17 34 -30 23z"/>
<path d="M6 2198 c3 -4 11 -8 19 -8 7 0 21 -7 29 -16 15 -14 16 -14 16 0 0 9
-7 16 -15 16 -8 0 -15 4 -15 9 0 6 -9 9 -19 8 -11 0 -17 -5 -15 -9z"/>
<path d="M200 2131 c0 -6 -10 -11 -22 -11 -13 -1 -34 -8 -48 -16 -17 -10 -18
-13 -5 -8 11 3 33 7 48 9 33 2 54 19 38 29 -6 4 -11 2 -11 -3z"/>
<path d="M1382 2123 c3 -15 18 -17 137 -15 74 1 143 5 154 8 13 4 17 2 13 -5
-5 -7 2 -11 16 -10 30 1 76 -9 102 -23 12 -6 23 -11 26 -11 30 1 171 -130 190
-178 7 -16 16 -29 21 -29 5 0 9 -11 9 -24 0 -14 6 -31 13 -38 8 -7 14 -20 15
-28 3 -54 14 -157 17 -167 2 -6 0 -24 -5 -40 -5 -15 -16 -52 -25 -82 -19 -62
-79 -156 -133 -207 -43 -40 -123 -84 -167 -91 -16 -3 -32 -8 -35 -13 -3 -4
-72 -8 -155 -9 -121 -2 -153 -5 -167 -18 -15 -14 -18 -35 -18 -148 0 -88 4
-135 12 -143 27 -27 488 -8 488 20 0 5 9 8 19 8 11 0 23 4 26 10 3 5 14 10 23
10 9 0 33 10 52 22 19 12 38 22 42 23 12 0 91 67 140 118 69 71 168 222 168
257 0 23 -29 8 -38 -20 -16 -43 -95 -163 -144 -216 -55 -60 -149 -127 -230
-163 -100 -46 -195 -61 -378 -61 l-160 0 0 140 0 140 153 0 c159 0 219 10 294
48 57 29 165 131 159 149 -3 8 -1 11 4 8 14 -9 70 114 86 189 17 79 17 125 0
207 -27 127 -92 229 -193 305 -97 73 -149 86 -356 90 -164 4 -178 3 -175 -13z"/>
<path d="M130 2070 c27 -9 12 -13 -32 -10 -14 1 -29 -4 -33 -10 -6 -9 1 -10
24 -5 26 5 30 4 25 -9 -3 -9 -2 -16 4 -16 6 0 12 5 14 11 2 5 10 11 18 12 53
8 51 37 -2 36 -37 -1 -39 -2 -18 -9z"/>
<path d="M220 2052 c-14 -2 -30 -8 -37 -14 -7 -5 -18 -6 -25 -2 -10 6 -10 4 0
-9 16 -19 68 -15 90 6 17 17 6 24 -28 19z"/>
<path d="M328 2015 c-13 -13 -175 -24 -210 -15 -9 3 -17 1 -18 -5 -1 -5 9 -13
22 -16 23 -6 21 -8 -22 -22 -8 -3 -3 -6 12 -6 15 -1 29 3 32 8 3 4 18 6 33 4
22 -4 25 -2 13 6 -9 7 -10 11 -3 11 6 0 15 -5 18 -10 5 -8 11 -7 21 1 8 6 14
9 14 6 0 -8 103 23 115 34 5 6 3 9 -6 9 -9 0 -18 -2 -21 -5z"/>
<path d="M363 1970 c-18 -9 -30 -20 -26 -24 3 -3 1 -6 -6 -6 -8 0 -10 7 -6 20
4 14 2 18 -7 15 -7 -3 -13 -16 -13 -29 0 -13 2 -23 5 -22 30 12 68 34 82 49
22 21 13 20 -29 -3z"/>
<path d="M580 1913 c0 -6 -12 -14 -26 -17 -20 -5 -24 -10 -15 -19 8 -8 17 -6
33 11 12 12 19 25 15 28 -4 4 -7 3 -7 -3z"/>
<path d="M433 1891 c-11 -18 -10 -18 20 -9 70 23 74 27 32 27 -29 1 -43 -4
-52 -18z"/>
<path d="M1432 1882 c-38 -6 -43 -42 -40 -259 4 -248 -2 -237 131 -239 111 -1
179 5 172 16 -3 5 9 11 26 15 35 8 94 56 113 94 27 52 39 138 26 192 -7 27
-16 49 -22 49 -5 0 -7 4 -4 9 16 25 -117 130 -149 117 -8 -3 -15 -1 -15 5 0 9
-183 11 -238 1z m254 -27 c18 -3 52 -23 77 -45 59 -53 81 -108 75 -194 -5 -82
-41 -138 -113 -178 -47 -26 -58 -28 -177 -28 l-128 0 0 228 0 227 117 -3 c65
-1 132 -5 149 -7z"/>
<path d="M406 1852 c-10 -16 26 -23 59 -12 l30 10 -31 -4 c-17 -3 -36 0 -41 5
-7 7 -13 7 -17 1z"/>
<path d="M2387 1588 c-3 -74 -12 -136 -26 -178 -11 -36 -21 -66 -21 -67 0 -2
7 -3 15 -3 8 0 17 12 21 28 3 15 12 46 20 70 8 23 14 54 14 67 0 13 5 27 11
31 7 4 7 9 2 13 -5 3 -7 36 -3 73 5 63 0 78 -24 78 -2 0 -6 -51 -9 -112z"/>
</g>
</svg>
